<?xml version="1.0" encoding="UTF-8"?>
<!DOCTYPE svg PUBLIC "-//W3C//DTD SVG 1.1//EN" "http://www.w3.org/Graphics/SVG/1.1/DTD/svg11.dtd">
<!-- Creator: CorelDRAW 2021 (64-Bit) -->
<svg xmlns="http://www.w3.org/2000/svg" xml:space="preserve" width="2in" height="0.483335in" version="1.1" style="shape-rendering:geometricPrecision; text-rendering:geometricPrecision; image-rendering:optimizeQuality; fill-rule:evenodd; clip-rule:evenodd"
viewBox="0 0 26.6 6.43"
 xmlns:xlink="http://www.w3.org/1999/xlink"
 xmlns:xodm="http://www.corel.com/coreldraw/odm/2003">
 <defs>
  <style type="text/css">
   <![CDATA[
    .fil0 {fill:#FEFEFE}
    .fil1 {fill:#60BB22}
    .fil5 {fill:#FEFEFE;fill-rule:nonzero}
    .fil2 {fill:#FEFEFE;fill-rule:nonzero}
    .fil4 {fill:#20863D;fill-rule:nonzero}
    .fil3 {fill:#60BB22;fill-rule:nonzero}
   ]]>
  </style>
 </defs>
 <g id="Layer_x0020_1">
  <metadata id="CorelCorpID_0Corel-Layer"/>
  <g id="_1569546946688">
   <path class="fil0" d="M1.85 0l1.85 0 1.85 0 0.93 1.61 0.93 1.61 -0.93 1.61 -0.93 1.61 -1.85 -0 -1.85 0 -0.93 -1.61 -0.93 -1.61 0.93 -1.61 0.93 -1.61zm1.85 0.91c1.27,0 2.3,1.03 2.3,2.3 0,1.27 -1.03,2.3 -2.3,2.3 -1.27,0 -2.3,-1.03 -2.3,-2.3 0,-1.27 1.03,-2.3 2.3,-2.3z"/>
   <path class="fil1" d="M3.71 1.93c0.71,0 1.28,0.57 1.28,1.28 0,0.71 -0.57,1.28 -1.28,1.28 -0.71,0 -1.28,-0.57 -1.28,-1.28 0,-0.71 0.57,-1.28 1.28,-1.28z"/>
   <path class="fil2" d="M2.78 2.58c0.35,-0.51 1.05,-0.64 1.56,-0.29 0.51,0.35 0.64,1.05 0.29,1.56 -0.35,0.51 -1.05,0.64 -1.56,0.29 -0.51,-0.35 -0.64,-1.05 -0.29,-1.56z"/>
   <path class="fil3" d="M3.16 4.01c-0.43,-0.3 -0.54,-0.91 -0.24,-1.34 0.3,-0.44 0.9,-0.55 1.34,-0.25 0.44,0.31 0.55,0.89 0.25,1.33 -0.31,0.44 -0.9,0.55 -1.34,0.25z"/>
   <path class="fil4" d="M3.34 3.74c-0.29,-0.2 -0.37,-0.6 -0.17,-0.89 0.2,-0.29 0.6,-0.36 0.89,-0.17 0.29,0.2 0.37,0.6 0.17,0.89 -0.2,0.3 -0.6,0.37 -0.89,0.17z"/>
   <path class="fil5" d="M4.25 2.81c0.02,0.11 -0.05,0.21 -0.16,0.23 -0.11,0.02 -0.21,-0.05 -0.23,-0.16 -0.02,-0.11 0.05,-0.21 0.16,-0.23 0.11,-0.02 0.21,0.05 0.23,0.16z"/>
   <path class="fil5" d="M3.97 3.14c0.01,0.06 -0.03,0.13 -0.09,0.14 -0.06,0.01 -0.13,-0.03 -0.14,-0.09 -0.01,-0.06 0.03,-0.13 0.09,-0.14 0.06,-0.01 0.13,0.03 0.14,0.09z"/>
   <g>
    <path class="fil1" d="M13.41 3.75c0.54,0 0.97,0.44 0.97,0.97 0,0.54 -0.43,0.97 -0.97,0.97 -0.54,0 -0.97,-0.44 -0.97,-0.97 0,-0.54 0.43,-0.97 0.97,-0.97z"/>
    <path class="fil2" d="M12.71 4.24c0.26,-0.39 0.79,-0.49 1.18,-0.22 0.39,0.26 0.49,0.79 0.22,1.18 -0.26,0.39 -0.79,0.49 -1.18,0.22 -0.39,-0.26 -0.49,-0.79 -0.22,-1.18z"/>
    <path class="fil3" d="M12.99 5.32c-0.33,-0.23 -0.41,-0.69 -0.19,-1.01 0.23,-0.33 0.68,-0.42 1.01,-0.19 0.33,0.23 0.42,0.68 0.19,1.01 -0.23,0.33 -0.69,0.42 -1.02,0.19z"/>
    <path class="fil4" d="M13.13 5.12c-0.22,-0.15 -0.28,-0.45 -0.13,-0.68 0.15,-0.22 0.45,-0.28 0.68,-0.13 0.22,0.15 0.28,0.45 0.13,0.68 -0.15,0.23 -0.46,0.28 -0.68,0.13z"/>
    <path class="fil5" d="M13.82 4.42c0.02,0.08 -0.04,0.16 -0.12,0.18 -0.08,0.02 -0.16,-0.04 -0.18,-0.12 -0.02,-0.08 0.04,-0.16 0.12,-0.18 0.08,-0.02 0.16,0.04 0.18,0.12z"/>
    <path class="fil5" d="M13.61 4.66c0.01,0.05 -0.02,0.1 -0.07,0.1 -0.05,0.01 -0.09,-0.02 -0.1,-0.07 -0.01,-0.05 0.02,-0.1 0.07,-0.1 0.05,-0.01 0.09,0.02 0.1,0.07z"/>
   </g>
   <polygon class="fil0" points="9.77,3.76 9.77,5.63 9.16,5.63 9.16,3.76 8.69,3.76 8.69,3.22 10.24,3.22 10.24,3.76 "/>
   <path class="fil0" d="M11.6 5.63l0 -0.98c0,-0.11 -0.02,-0.2 -0.06,-0.26 -0.05,-0.08 -0.13,-0.12 -0.23,-0.12 -0.11,0 -0.19,0.03 -0.24,0.1 -0.04,0.06 -0.06,0.14 -0.06,0.26l0 1 -0.54 0 0 -2.41 0.54 0 0 0.77 0.01 0c0.04,-0.08 0.11,-0.14 0.2,-0.18 0.08,-0.03 0.16,-0.05 0.27,-0.05 0.21,0 0.38,0.07 0.49,0.2 0.08,0.09 0.13,0.19 0.15,0.31 0.01,0.05 0.02,0.1 0.02,0.17 0,0.02 0,0.05 0,0.09l0 1.1 -0.54 0z"/>
   <path class="fil0" d="M15.81 5.63l0 -0.99c0,-0.12 -0.02,-0.2 -0.05,-0.26 -0.04,-0.07 -0.12,-0.11 -0.23,-0.11 -0.12,0 -0.2,0.04 -0.25,0.11 -0.04,0.06 -0.06,0.15 -0.06,0.27l0 0.98 -0.54 0 0 -1.81 0.5 0 0 0.19 0.01 0c0.1,-0.17 0.27,-0.25 0.49,-0.25 0.18,0 0.34,0.05 0.46,0.16 0.08,0.07 0.13,0.15 0.17,0.27 0.03,0.09 0.04,0.19 0.04,0.32l0 1.13 -0.54 0z"/>
   <path class="fil0" d="M18.6 5.48c-0,0.03 -0,0.05 -0,0.08 -0,0.06 -0.01,0.11 -0.01,0.15 -0.02,0.11 -0.05,0.21 -0.09,0.29 -0.08,0.14 -0.22,0.25 -0.4,0.33 -0.16,0.07 -0.33,0.1 -0.51,0.1 -0.17,0 -0.31,-0.03 -0.44,-0.08 -0.15,-0.06 -0.26,-0.15 -0.35,-0.27 -0.06,-0.09 -0.1,-0.18 -0.11,-0.28l0.62 0c0.05,0.12 0.16,0.18 0.31,0.18 0.29,0 0.44,-0.16 0.44,-0.49l0 -0.06 -0.01 0c-0.05,0.08 -0.12,0.15 -0.21,0.19 -0.09,0.04 -0.18,0.06 -0.28,0.06 -0.27,0 -0.48,-0.09 -0.66,-0.28 -0.17,-0.18 -0.25,-0.4 -0.25,-0.67 0,-0.27 0.08,-0.5 0.25,-0.69 0.17,-0.19 0.39,-0.29 0.66,-0.29 0.1,0 0.2,0.02 0.28,0.05 0.1,0.04 0.17,0.1 0.22,0.18l0.01 0 0 -0.17 0.54 0 0 1.66zm-0.54 -0.75c0,-0.13 -0.04,-0.24 -0.12,-0.33 -0.08,-0.09 -0.19,-0.14 -0.32,-0.14 -0.12,0 -0.23,0.04 -0.31,0.13 -0.08,0.09 -0.12,0.19 -0.12,0.32 0,0.13 0.04,0.24 0.12,0.33 0.08,0.09 0.19,0.14 0.31,0.14 0.13,0 0.24,-0.04 0.32,-0.13 0.08,-0.08 0.12,-0.19 0.12,-0.32z"/>
   <polygon class="fil0" points="20.98,5.63 21,3.82 20.99,3.82 20.48,5.63 20.07,5.63 19.56,3.82 19.55,3.82 19.57,5.63 19.01,5.63 19.01,3.22 19.8,3.22 20.27,4.8 20.28,4.8 20.75,3.22 21.54,3.22 21.54,5.63 "/>
   <path class="fil0" d="M21.95 3.63l0 -0.41 0.54 0 0 0.41 -0.54 0zm0 2l0 -1.81 0.54 0 0 1.81 -0.54 0z"/>
   <path class="fil0" d="M24.01 5.63l0 -0.99c0,-0.12 -0.02,-0.2 -0.05,-0.26 -0.04,-0.07 -0.12,-0.11 -0.23,-0.11 -0.12,0 -0.2,0.04 -0.25,0.11 -0.04,0.06 -0.06,0.15 -0.06,0.27l0 0.98 -0.54 0 0 -1.81 0.5 0 0 0.19 0.01 0c0.1,-0.17 0.27,-0.25 0.49,-0.25 0.18,0 0.34,0.05 0.46,0.16 0.08,0.07 0.13,0.15 0.17,0.27 0.03,0.09 0.04,0.19 0.04,0.32l0 1.13 -0.54 0z"/>
   <path class="fil0" d="M26.06 5.63l0 -0.98c0,-0.11 -0.02,-0.2 -0.06,-0.26 -0.05,-0.08 -0.13,-0.12 -0.23,-0.12 -0.11,0 -0.19,0.03 -0.24,0.1 -0.04,0.06 -0.06,0.14 -0.06,0.26l0 1 -0.54 0 0 -2.41 0.54 0 0 0.77 0.01 0c0.04,-0.08 0.11,-0.14 0.2,-0.18 0.08,-0.03 0.16,-0.05 0.27,-0.05 0.21,0 0.38,0.07 0.49,0.2 0.08,0.09 0.13,0.19 0.15,0.31 0.01,0.05 0.02,0.1 0.02,0.17 0,0.02 0,0.05 0,0.09l0 1.1 -0.54 0z"/>
   <polygon class="fil0" points="13.56,3.55 13.41,3.37 13.26,3.55 12.73,3.55 13.24,3.01 13.59,3.01 14.08,3.55 "/>
   <path class="fil0" d="M9.92 2.24l0 -0.17 -0.01 0c-0.04,0.08 -0.11,0.13 -0.2,0.17 -0.07,0.03 -0.16,0.05 -0.26,0.05 -0.23,0 -0.42,-0.08 -0.56,-0.24 -0.14,-0.16 -0.21,-0.35 -0.21,-0.58 0,-0.23 0.07,-0.42 0.21,-0.58 0.14,-0.16 0.33,-0.24 0.55,-0.24 0.18,0 0.33,0.06 0.45,0.18l0 -0.64 0.46 0 0 2.05 -0.44 0zm0 -0.78c0,-0.11 -0.04,-0.2 -0.11,-0.28 -0.07,-0.07 -0.17,-0.11 -0.28,-0.11 -0.11,0 -0.2,0.04 -0.28,0.11 -0.07,0.07 -0.11,0.17 -0.11,0.28 0,0.11 0.04,0.21 0.11,0.28 0.07,0.08 0.16,0.11 0.28,0.11 0.11,0 0.21,-0.04 0.28,-0.11 0.07,-0.08 0.11,-0.17 0.11,-0.28zm0.77 -0.93l0 -0.35 0.46 0 0 0.35 -0.46 0zm0 1.7l0 -1.54 0.46 0 0 1.54 -0.46 0zm1.96 -0.78c0,-0.11 -0.04,-0.2 -0.11,-0.28 -0.07,-0.07 -0.17,-0.11 -0.28,-0.11 -0.11,0 -0.2,0.04 -0.28,0.11 -0.07,0.07 -0.11,0.17 -0.11,0.28 0,0.11 0.04,0.21 0.11,0.28 0.07,0.08 0.16,0.11 0.28,0.11 0.11,0 0.21,-0.04 0.28,-0.11 0.07,-0.08 0.11,-0.17 0.11,-0.28zm0.44 -0.87l0 1.65 -0.44 0 0 -0.17 -0.01 0c-0.04,0.08 -0.11,0.13 -0.2,0.17 -0.07,0.03 -0.16,0.05 -0.26,0.05 -0.23,0 -0.42,-0.08 -0.56,-0.24 -0.14,-0.16 -0.21,-0.35 -0.21,-0.58 0,-0.23 0.07,-0.42 0.21,-0.58 0.14,-0.16 0.33,-0.24 0.55,-0.24 0.18,0 0.33,0.06 0.45,0.18l0 -0.24 -0.3 0 0 -0.27 0.3 0 0 -0.13 0.46 0 0 0.13 0.13 0 0 0.27 -0.13 0zm1.92 0.88c0,0.23 -0.08,0.43 -0.24,0.59 -0.16,0.16 -0.35,0.23 -0.59,0.23 -0.24,0 -0.43,-0.08 -0.59,-0.23 -0.16,-0.16 -0.24,-0.35 -0.24,-0.59 0,-0.24 0.08,-0.43 0.24,-0.59 0.16,-0.16 0.35,-0.23 0.59,-0.23 0.24,0 0.43,0.08 0.59,0.23 0.16,0.16 0.24,0.35 0.24,0.59zm-0.46 0c0,-0.11 -0.03,-0.2 -0.1,-0.27 -0.07,-0.08 -0.16,-0.12 -0.26,-0.12 -0.1,0 -0.19,0.04 -0.26,0.12 -0.07,0.07 -0.1,0.17 -0.1,0.27 0,0.11 0.03,0.2 0.1,0.27 0.07,0.08 0.16,0.12 0.26,0.12 0.11,0 0.19,-0.04 0.26,-0.12 0.07,-0.08 0.1,-0.17 0.1,-0.27zm-0.59 1.44l0 -0.42 0.44 0 0 0.42 -0.44 0zm0.35 -2.44l-0.13 -0.16 -0.13 0.16 -0.45 0 0.43 -0.46 0.3 0 0.42 0.46 -0.44 0zm1.92 1.78l0 -0.84c0,-0.1 -0.01,-0.17 -0.04,-0.22 -0.04,-0.06 -0.1,-0.09 -0.2,-0.09 -0.1,0 -0.17,0.03 -0.21,0.09 -0.03,0.05 -0.05,0.13 -0.05,0.23l0 0.84 -0.46 0 0 -1.54 0.43 0 0 0.16 0.01 0c0.09,-0.14 0.23,-0.22 0.42,-0.22 0.16,0 0.29,0.04 0.39,0.13 0.07,0.06 0.11,0.13 0.14,0.23 0.02,0.07 0.03,0.16 0.03,0.27l0 0.96 -0.46 0zm2.38 -0.12c-0,0.02 -0,0.05 -0,0.07 -0,0.05 -0.01,0.09 -0.01,0.13 -0.01,0.1 -0.04,0.18 -0.08,0.25 -0.07,0.12 -0.18,0.21 -0.34,0.28 -0.14,0.06 -0.28,0.09 -0.44,0.09 -0.14,0 -0.27,-0.02 -0.38,-0.07 -0.13,-0.05 -0.22,-0.13 -0.3,-0.23 -0.05,-0.08 -0.08,-0.16 -0.09,-0.24l0.53 0c0.05,0.1 0.13,0.15 0.27,0.15 0.25,0 0.37,-0.14 0.37,-0.42l0 -0.05 -0.01 0c-0.04,0.07 -0.1,0.13 -0.18,0.17 -0.07,0.04 -0.15,0.05 -0.24,0.05 -0.23,0 -0.41,-0.08 -0.56,-0.24 -0.14,-0.15 -0.22,-0.34 -0.22,-0.57 0,-0.23 0.07,-0.43 0.21,-0.58 0.15,-0.16 0.33,-0.25 0.56,-0.25 0.09,0 0.17,0.02 0.24,0.04 0.08,0.03 0.15,0.08 0.19,0.15l0.01 0 0 -0.14 0.46 0 0 1.42zm-0.46 -0.64c0,-0.11 -0.03,-0.21 -0.1,-0.28 -0.07,-0.08 -0.16,-0.12 -0.27,-0.12 -0.1,0 -0.19,0.04 -0.26,0.11 -0.07,0.07 -0.11,0.16 -0.11,0.27 0,0.11 0.03,0.2 0.1,0.28 0.07,0.08 0.16,0.12 0.27,0.12 0.11,0 0.2,-0.04 0.27,-0.11 0.07,-0.07 0.11,-0.16 0.11,-0.27z"/>
  </g>
 </g>
</svg>
