<svg id="Capa_1" enable-background="new 0 0 497.079 497.079" height="512" viewBox="0 0 497.079 497.079" width="512" xmlns="http://www.w3.org/2000/svg"><g><path d="m402.897 217.17c-.542-1.114-1.487-3.735-2.666-7.01-3.932-10.925-11.459-9.723-11.459-9.723s1.527 2.558-1.021 9.191c-.768 4.534-26.69 38.226-31.379 29.545-.397-.734-.5-1.59-.404-2.419 1.466-12.674 1.956-25.647 1.489-38.733-2.09-60.49-24.28-123.63-62.48-173.24-.11-.14-.21-.27-.32-.4-.598-.774-1.2-1.545-1.806-2.313-.001-.001-.002-.002-.002-.003v-.005c-1.631-2.061-3.289-4.1-4.975-6.114-4.369-5.22-6.588-.799-11.347-5.676-1.55-1.59-4.27-.64-4.52 1.57-5.52 49.67-17.142 68.75-29.702 84.17-15.913 17.038-40.095 37.05-50.046 63.83-4.913 10.964-13.284 21.536-15.84 32.32-.413 2.219-3.379 2.432-4.552 1.111-9.82-9.782-17.143-28.996-20.07-46.071-.99-5.774-4.614-1.254-4.525-6.091-.02-1.56-1.9-2.33-3.01-1.22-51.05 50.75-66.972 121.309-57.702 195.359 1.51 12.3 1.986 24.642 5.106 36.252 10.331 40.192 38.26 71.355 70.468 93.957 29.026 20.369 60.844 34.407 98.324 30.993-.012-.001-.025-.003-.037-.004 82.52-6.129 144.653-66.926 156.276-148.926 8.235-51.697-2.98-99.442-13.8-130.35z" fill="#f9af38"/><g fill="#f48931"><path d="m256.639 496.751c-77.65 5.1-150.52-49.89-169.84-125.07-3.12-11.61-5.91-24.61-7.42-36.91-9.27-74.05 16.97-154.18 68.02-204.93 1.11-1.11 2.99-.34 3.01 1.22-.09 4.84.4 10.36 1.39 16.14-40.69 50.57-60.69 121.49-52.42 187.57 1.51 12.3 4.3 25.3 7.42 36.91 17.65 68.68 80 120.52 149.84 125.07z"/><path d="m358.229 240.741c.09.01.18.02.27.02h-.28z"/><path d="m192.259 148.791c-1.54 2.98-2.96 5.96-4.28 8.91l-.01-.02c1.32-2.95 2.74-5.92 4.29-8.89z"/></g><path d="m345.879 307.076c-2.205-5.599-2.809-7.261-4.17-10.043-.485-.991-1.948-.799-2.164.281-.73 3.641-.901 6.165-2.772 11.038-2.93 7.81-9.086 14.704-15.053 20.35-.793.764-1.932.552-2.522-.166-.27-.478-.424-.94-.38-1.308 5.624-46.839-9.288-99.788-39.865-139.499-.071-.092-.139-.172-.208-.257-.132-.171-.264-.341-.396-.511-4.067-5.225-7.354-7.986-11.958-12.7-1.019-1.044-2.796-.424-2.959 1.028-3.615 32.53-9.413 49.707-17.638 59.804-8.009 9.84-16.229 12.581-25.412 26.622-8.392 12.841-12.899 24.348-15.443 34.894-.33 1.366-5.701 2.538-6.618 1.473-2.617-3.026-5.723-7.381-8.368-13.347-1.765-3.983-2.994-7.933-3.846-11.642-1.441-6.278-3.494-7.37-3.532-11.259-.012-1.024-1.247-1.525-1.973-.799-35.603 35.393-46.13 86.545-36.426 137.532 13.516 71.014 67.851 98.616 107.234 98 1.722-.027 3.918.321 6.22.142 24.314-1.885 78.01-14.342 97.707-82.218 11.275-38.851 2.82-76.256-5.303-99.644-1.038-2.996-4.155-7.771-4.155-7.771z" fill="#df646e"/><path d="m208.409 275.831-3.47 9c.99-2.92 2.14-5.94 3.47-9z" fill="#dc4955"/><path d="m258.327 496.651c-2.53.28-4.958.22-6.758.35-39.39.41-98.83-25.85-112.34-96.86-9.71-50.99 7.47-108.21 43.07-143.6.73-.73 1.96-.23 1.97.8.04 3.89.4 9.47 1.84 15.75-25.8 35.18-37.19 83.4-28.88 127.05 12.26 64.4 62.508 92.24 101.098 96.51z" fill="#dc4955"/><g><g><path d="m227.88 445.541c-.993 0-2.003-.199-2.973-.618-3.802-1.644-5.551-6.059-3.907-9.86l42.676-98.69c1.644-3.801 6.059-5.55 9.86-3.907 3.802 1.644 5.552 6.059 3.907 9.86l-42.676 98.69c-1.224 2.832-3.987 4.525-6.887 4.525z" fill="#f5fcff"/></g><g><path d="m210.976 384.315c-.087 0-.174 0-.262-.001-14.272-.154-25.744-13.227-25.572-29.141.171-15.82 11.785-28.585 25.941-28.585.085 0 .169 0 .254.001 7.129.077 13.73 3.296 18.588 9.066 4.584 5.445 7.065 12.575 6.984 20.076s-2.714 14.575-7.416 19.92c-4.92 5.594-11.487 8.664-18.517 8.664zm.106-42.727c-5.959 0-10.859 6.142-10.941 13.747-.082 7.644 4.733 13.916 10.735 13.98 2.7.068 5.304-1.239 7.354-3.57 2.331-2.65 3.637-6.264 3.68-10.176.042-3.912-1.187-7.553-3.459-10.252-2-2.375-4.583-3.699-7.275-3.728-.032-.001-.063-.001-.094-.001z" fill="#f5fcff"/></g><g><path d="m285.991 452.915c-.085 0-.168 0-.254-.001-14.271-.154-25.743-13.227-25.572-29.141.172-15.821 11.785-28.585 25.941-28.585.085 0 .17 0 .255.001 14.271.154 25.743 13.227 25.572 29.141v.001c-.172 15.819-11.786 28.584-25.942 28.584zm.114-42.727c-5.96 0-10.858 6.142-10.94 13.747-.083 7.644 4.732 13.915 10.734 13.98 5.966.092 10.952-6.102 11.034-13.747v.001c.083-7.645-4.732-13.916-10.734-13.981-.031 0-.063 0-.094 0zm18.328 14.062h.01z" fill="#f5fcff"/></g></g><path d="m194.305 43.289c-3.447 18.27-15.3 27.635-20.466 31.787-.959.771-2.369.498-2.982-.568-3.305-5.75-11.146-18.45-7.701-36.709.78-4.136.39-8.786 2.083-12.357 5.788-12.206 15.501-20.845 19.498-24.058.959-.771 2.369-.498 2.982.568 2.603 4.528 8.665 16.428 9.44 30.199.209 3.714-2.123 7.259-2.854 11.138z" fill="#df646e"/><path d="m196.459 43.591c-3.44 18.27-18.16 31.49-23.33 35.64-.96.77-2.37.5-2.98-.56-3.3-5.75-12.19-23.39-8.74-41.65.85-4.51 2.39-8.71 4.31-12.54.77 13.76 6.83 25.66 9.43 30.19.61 1.06 2.02 1.33 2.98.56 3.89-3.12 13.2-11.39 19.02-23.08.22 3.72.04 7.57-.69 11.44z" fill="#dc4955"/><path d="m416.007 101.203c3.596 16.548-4.785 29.466-8 34.723-.592.968-1.875 1.246-2.814.61-5.107-3.459-17.419-11.293-21.015-27.844-.599-2.756-2.458-5.701-2.447-8.405.056-13.529 6.698-25.748 9.377-30.13.592-.968 1.875-1.246 2.814-.61 3.892 2.637 13.528 9.876 19.482 20.5 1.858 3.315 1.748 7.221 2.603 11.156z" fill="#df646e"/><path d="m409.079 139.291c-.59.96-1.88 1.24-2.81.61-5.11-3.46-20.1-14.85-23.7-31.4-.74-3.4-.95-6.81-.78-10.11 5.95 10.63 15.58 17.87 19.48 20.51.93.63 2.22.35 2.81-.61 2.55-4.17 8.71-15.47 9.32-28.24 1.86 3.31 3.36 6.95 4.22 10.89 3.59 16.55-5.33 33.09-8.54 38.35z" fill="#dc4955"/><path d="m278.349 186.961c-4.38 23.81-12.05 37.69-19.01 46.24-8.01 9.84-15.42 13.03-24.61 27.07-4.4 6.73-8.39 16.9-11.27 25.08-2.81 7.96-10.34 13.28-18.79 13.31l-5.05.02c3.42-1.544 3.042-9.72 5.321-13.849 2.979-8.254 6.862-17.269 11.789-24.561 9.19-14.04 16.6-17.23 24.61-27.07 8.22-10.1 17.42-27.62 21.04-60.15.16-1.45 1.94-2.07 2.96-1.03 4.02 4.13 7.86 8.47 11.47 12.99.52.65 1.03 1.3 1.54 1.95z" fill="#dc4955"/><path d="m350.019 314.851c-.115.215-.241.438-.375.666-5.031 8.568-14.386 13.664-24.322 13.664h-4.633l.01-.01c.36-.03.72-.17 1.02-.47 5.97-5.64 10.83-13.67 13.76-21.48 1.54-4.02 2.6-7.83 3.34-11.09 0-.01 0-.01 0-.02.15-.68.29-1.35.42-1.97.22-1.08 1.68-1.28 2.16-.29 1.37 2.79 3.37 7.13 5.58 12.72v.01c.99 2.51 2.02 5.28 3.04 8.27z" fill="#dc4955"/><path d="m358.499 240.761h-.28l.01-.02c.09.01.18.02.27.02z" fill="#f48931"/><g fill="#f48931"><path d="m269.669 2.361c-5.52 49.67-19.57 76.42-32.13 91.84-15.91 17.04-39.61 36.72-49.56 63.5l-.01-.02c-2.305 5.155-4.413 10.701-6.286 16.253l-.014-.023c-.287.865-.554 1.73-.85 2.59.002.004.004.009.006.013-1.737 5.384-3.235 10.721-4.406 15.647-.22 1.22-1.23 1.84-2.28 1.92v.01h7.027c8.823 0 16.618-5.775 19.148-14.227 2.307-7.704 5.214-16.734 7.655-22.183l.01.02c9.95-26.78 33.65-46.46 49.56-63.5 11.36-13.95 23.95-37.17 30.33-78.25-4.36-5.22-8.92-10.28-13.68-15.16-1.55-1.59-4.27-.64-4.52 1.57z"/><path d="m387.029 187.261c-1.28 6.43-3.19 13.34-5.74 19.97-.119.703-.689 2.169-1.577 4.095-.097.209-.195.421-.299.64-.038.08-.078.162-.116.243-.389.815-.826 1.698-1.303 2.63-.087.17-.174.34-.264.513-5.156 9.976-14.556 25.098-19.371 25.159l-.14.25.999-.013c12.38-.159 23.998-6.035 31.438-15.931 4.124-5.486 8.048-11.146 9.573-14.656-3.93-10.92-10.45-29.12-13.2-22.9z"/></g></g></svg>